<svg viewBox="0 0 40 40" fill="none" xmlns="http://www.w3.org/2000/svg">
<g clip-path="url(#clip0_16527_64)">
<rect width="40" height="40" rx="20" fill="white"/>
<path fill-rule="evenodd" clip-rule="evenodd" d="M2.28053 0.0987441C1.16306 0.400172 0.304093 1.28945 0.0742762 2.38276C0.0206988 2.63758 0 7.5559 0 20.0204C0 35.1263 0.0125125 37.3529 0.0993012 37.6866C0.396206 38.8286 1.27687 39.692 2.38263 39.9253C2.637 39.9789 7.54669 39.9997 19.9893 39.9997C38.8288 39.9997 37.5627 40.0255 38.3531 39.6243C39.0407 39.2753 39.7285 38.3728 39.8402 37.6732C39.8645 37.521 39.9104 37.3804 39.9422 37.3607C39.9746 37.3405 40 29.6982 40 19.9233C40 9.99493 39.975 2.5371 39.9418 2.55771C39.9097 2.57751 39.8652 2.48177 39.8429 2.34495C39.6755 1.31979 38.6502 0.30223 37.5508 0.0703414C37.2961 0.0166031 32.394 -0.00286542 19.9135 0.000334881C5.25903 0.00406856 2.57591 0.0190033 2.28053 0.0987441ZM0.032812 19.9978C0.032812 29.587 0.0404659 33.5099 0.0499168 28.7153C0.0593677 23.9207 0.0593677 16.075 0.0499168 11.2803C0.0404659 6.48574 0.032812 10.4086 0.032812 19.9978ZM10.3827 11.0303V12.3971H18.7354H27.0882V15.6919C27.0882 17.5041 27.07 19.0342 27.0478 19.0922C27.0114 19.1873 26.4622 19.1977 21.5173 19.1977C16.4113 19.1977 16.0128 19.2059 15.8216 19.3144C15.5728 19.4556 15.3744 19.6405 15.3744 19.7311C15.3744 19.7678 15.3456 19.7978 15.3104 19.7978C15.1427 19.7978 15.1072 20.4092 15.1241 23.008L15.1414 25.6983L16.4559 25.7164L17.7704 25.7345V23.7662V21.798H23.2639C28.5232 21.798 28.7679 21.7926 29.0043 21.6717C29.3145 21.5131 29.4331 21.3786 29.6098 20.9849C29.7488 20.6753 29.7504 20.6171 29.749 15.7511C29.7476 10.9609 29.744 10.8224 29.6133 10.5339C29.5394 10.3709 29.3868 10.1549 29.2739 10.0541C28.8142 9.64297 29.333 9.6635 19.4224 9.6635H10.3827V11.0303ZM11.4809 14.4429C11.012 14.549 10.4841 15.035 10.4144 15.4249C10.3941 15.5381 10.3862 18.7635 10.3967 22.5925C10.4119 28.0889 10.4335 29.5601 10.4992 29.582C10.545 29.5973 10.5824 29.6464 10.5824 29.6912C10.5824 29.8018 10.972 30.1556 11.2011 30.253C11.3393 30.3117 12.6885 30.3321 16.4321 30.3321C21.9695 30.3321 21.684 30.3521 22.1026 29.9352C22.4742 29.5651 22.4991 29.3404 22.48 26.5288L22.4626 23.9648L21.1492 23.9468L19.8357 23.9287L19.818 25.7803L19.8003 27.6318H16.406H13.0116L12.9946 22.3814L12.9776 17.1309H18.968H24.9584V15.7641V14.3973L18.2862 14.405C14.6164 14.4093 11.5541 14.4263 11.4809 14.4429Z" fill="#1F042F"/>
</g>
<defs>
<clipPath id="clip0_16527_64">
<rect width="40" height="40" rx="20" fill="white"/>
</clipPath>
</defs>
</svg>
